<?xml version="1.0" encoding="utf-8"?>
<!-- Generator: Adobe Illustrator 16.0.3, SVG Export Plug-In . SVG Version: 6.00 Build 0)  -->
<!DOCTYPE svg PUBLIC "-//W3C//DTD SVG 1.1//EN" "http://www.w3.org/Graphics/SVG/1.1/DTD/svg11.dtd">
<svg version="1.1" id="圖層_1" xmlns="http://www.w3.org/2000/svg" xmlns:xlink="http://www.w3.org/1999/xlink" x="0px" y="0px"
	 width="595.28px" height="595.276px" viewBox="0 0 595.28 595.276" enable-background="new 0 0 595.28 595.276"
	 xml:space="preserve">
<g>
	
		<path fill="#FFFFFF" stroke="#BD7A79" stroke-width="4.657" stroke-linecap="round" stroke-linejoin="round" stroke-miterlimit="10" d="
		M283.821,501.707"/>
	
		<path fill="#FFFFFF" stroke="#BD7A79" stroke-width="4.657" stroke-linecap="round" stroke-linejoin="round" stroke-miterlimit="10" d="
		M336.054,546.525"/>
	<path fill="#FFFFFF" d="M310.431,315.353c2.143,2.344,3.605,5.047,5.706,7.404c2.06,2.324,3.604,4.313,5.34,6.602
		c1.447,1.828,2.912,3.619,4.337,5.365c4.834,6.039,11.548,17.506,16.682,23.795c4.082,4.93,8.621,9.535,12.669,14.387
		c3.294,4.035,15.345,11.254,28.099,16.176c0.661,0.256,0.689,1.053,1.025,1.602c0.648-0.008,1.306-0.041,1.936-0.047
		c1.083,1.1,5.123,0.414,6.4,1.301c-0.396,1.209,8.126-2.557,8.825-2.98c9.027-4.916,8.917-13.236,14.193-26.395
		c0.682-1.621,3.538-9.596,4.792-10.971c1.453-1.711,0.773-2.363,0.792-3.582c-0.019-0.307,6.227-12.176,6.41-12.668
		c-6.41,4.189-13.124,10.559-13.299,10.379c-2.647-2.33-10.862,7.73-14.309,7.467c-5.542-0.332-11.106-0.754-16.715-0.525
		c-3.032,0.104-12.675,2.779-12.201-2.934c-3.136,0.598-5.141-0.166-6.82-1.99c-2.868-3.092-6.751-5.643-9.302-8.924
		c-0.645-0.873-1.002-2.33-1.699-3.023c-1.319-1.365-3.356-1.906-4.684-3.314c-1.594-1.705-3.433-6.127-3.433-6.127
		s11.445-6.414,12.77-7.932c1.448-1.713,6.582-2.781,7.932-4.764c4.56-6.703,4.149-5.035,9.113-11.482
		c4.649-6.033,11.857-24.992,15.536-26.083c0.647-0.192-0.128-4.271,0.016-5.164c-3.797-0.98-8.539-2.014-12.277-3.251
		c-0.948-0.294-8.368-4.14-12.064-4.253c0.265,0-6.492,3.883-6.714,3.883c-2.727,0.077-12.435,1.798-12.893,1.829
		c-10.907,2.005-25.764,4.578-36.761,2.995c0.376,1.742,2.156,3.267,2.977,4.595c2.3,3.633,0.283,7.259,4.614,9.19
		c2.555,1.075,9.252-1.096,11.838-0.113c2.55,0.967,4.693,2.849,7.501,3.248c5.07,0.686,11.172,0.312,13.389,6.018
		c0.366,0,0.638-0.01,0.928-0.031c-4.027,11.25-9.246,12.592-15.815,20.66c-0.332,0.014-0.661,0.014-0.926,0.014
		c0.041,0.297,0.041,0.533,0.041,0.803c0.021,0.611-2.961-1.877-3.28-2.137c-1.756-1.371-2.989-3.201-4.709-4.59
		c-0.956-0.791-2.344-1.358-3.39-2.156c-1.906-1.422-4.092-3.089-5.44-4.994c-2.227-3.062-8.658-13.63-12.861-15.348
		c-0.668-0.288-1.309-0.526-1.99-0.751c-1.984-2.205-2.491-4.656-5.04-6.351c0-0.306,0-0.506-0.036-0.813
		c-0.297,0-0.583,0.036-0.929,0.036c0.507,4.313-0.108,9.915,1.546,13.056C300.931,297.589,306.195,310.701,310.431,315.353"/>
	<path fill="#FFFFFF" d="M174.94,381.519c7.234-1.332,11.755-2.939,17.065-7.857c7.12-6.627,13.927-13.457,20.669-20.363
		c0.144,0.049,0.287,0.125,0.589,0.432l1.484-1.799c-0.364-0.719,2.174-0.838,2.409-0.984c0.473,0.529,0.552,0.063,0.725-0.047
		c0.436-0.334,2.203,0.805,1.461-1.248c-0.387-1.066,6.319-2.406,5.488-4.049c-0.08-0.16-2.074-0.084-4.302-0.305
		c7.766-8.092,22.028-20.252,29.97-28.225c5.183-5.217,10.446-10.293,15.79-15.36c3.244-3.09,5.45-5.415,8.116-8.593
		c2.596-3.178,6.645-5.132,9.292-8.264c0.646-0.738,8.297-10.029,8.799-10.029h1.919v-1.563c-6.993-0.09-19.432-1.214-24.348-2.465
		h-19.33v1.623h-0.996c-1.036-1.908-2.381-3.971-4.484-5.076c0,0.423-0.475,1.317-0.442,1.8c-6.15-0.435-10.845-3.762-16.257-5.95
		c-4.259-1.608-11.701-5.344-15.53-5.344h-3.879v-0.803c-2.725,0.567-6.754,3.845-9.313,6.908c-0.711-0.1-1.397-0.189-1.73-0.154
		c-0.899,0.081-8.083,3.335-8.068,3.435c0.406,1.446-7.405,3.583-4.26,6.764c0.887,0.927,0.253,2.233,0.805,3.301
		c-0.23,0.083,2.238,1.106,1.969,1.21c-0.578,1.005,0.383,1.694-1.164,2.752l1.908,2.67c-0.037,0.766-0.096,1.3-0.122,2.14
		c-0.053,2.124-8.116,3.244-9.13,5.039c-0.946,1.728-4.743,5.295-5.513,6.809c-2.472,4.691,6.158,6.68,7.17,7.056
		c2.115,0.779,13.917,1.497,13.015-3.343c0.048,0.188,1.086-0.023,2.542-0.384c0.249,0.409,0.596,0.8,0.767,1.14
		c1.166,2.068-1.117,6.4,4.316,7.322c2.898,0.465,0.188,2.143,4.35,2.053c0.238-0.02,1.625-1.129,3.623-2.785
		c-0.42,0.515-0.764,0.961-0.927,1.156c-3.319,3.967-0.789,7.939-0.789,7.967c-0.251,1.219-0.597,4.848,0.741,7.508
		c-0.347,0.23-0.597,0.389-0.725,0.459c-1.085,0.656-5.499,3.287-6.599,3.82c-2.418,1.15-4.085,3.578-6.396,4.992
		c-3.123,1.838-5.581,4.473-8.245,6.795c-6.068,5.178-6.537,8.805-13.367,13.035c-1.983,1.219-3.65,1.822-5.193,2.945
		c-1.595,1.145-7.755,3.799-9.219,4.951c-1.706,1.33-9.204-4.875-11.822-9.16c-2.546-4.189-6.11-7.432-12.747-16.277
		c0,0.525-2.556,10.635-2.556,11.168c4.255,0.957-5.401,8.424-1.255,9.701c5.041,1.525,10.65,32.641,15.864,29.535
		c3.626-2.199,6.541-3.266,11.093-3.73C163.779,383.238,169.409,382.523,174.94,381.519 M235.465,288.664
		c1.559-1.062,3.077-2.127,4.886-2.829c6.254-2.424,10.291,0.829,16.361,2.67c1.82,0.541,4.454,1.563,5.443,3.088
		c-0.66-0.992-6.755,3.002-7.463,3.635c-2.396,2.093-3.013,3.697-5.189,5.99c-1.427,1.521-2.093,2.096-3.982,3.761
		c-1.717-0.898-8.525-11.087-9.457-12.723C235.908,291.975,234.709,291.452,235.465,288.664 M224.072,311.933
		c0.789-0.387,0.186-1.15,0.076-1.643c-0.346-1.346,1.559-3.625-1.316-4.803c-1.546-0.596,0.214-1.271-2.133-1.713
		c-0.425-0.083-2.441-0.158-5.417,0.953c4.706-4.049,10.163-8.705,12.947-10.645c0.993,3.775,2.46,12.622,3.693,13.688v2.443
		c0,0.041-3.503,2.469-7.775,5.375C224.072,313.994,224.148,312.261,224.072,311.933"/>
	<path fill="#FFFFFF" d="M325.995,347.96c-1.512-3.578-0.104-7.432-3.37-12.238c-20.029,1.18-41.048,2.211-60.861,4.84
		c-4.225,0.576-23.508,0.459-25.289-0.789h-4.186c1.85,3.271,4.521,7.307,5.354,10.793c0.691,2.732-0.239,9.416,4.263,10.928
		c6.591,0,11.731,2.564,18.531,2.795c5.301,0.262,10.879-0.389,15.994,0c0-0.346,0.147-0.658,0.338-0.951
		c1.333-2.135,7.873-1.496,10.445-1.295c3.797,0.338,7.49,1.018,11.317,1.102c3.799,0.145,9.229-0.805,12.827,0
		c5.626,1.34,12.367,1.672,20.013,1.607c0.329-0.775,0.678-1.607,1.06-2.371h-1.06C329.625,361.806,326.551,349.339,325.995,347.96"
		/>
	<path fill="#FFFFFF" d="M361.44,402.22c-1.464-0.221-11.096-22.027-11.414-24.516c-1.289-0.293-2.532-0.535-3.872-0.826v-0.803
		c-29.645,0-72.46,1.629-102.082,1.629c-12.06-0.713-24.125-1.4-36.167-2.088c-0.095-0.582-0.189-1.219-0.266-1.795h-0.948
		c0.126,0.568,0.158,1.152,0.203,1.746c-1.431-0.068-2.899-0.178-4.346-0.262c1.354,0.084,1.281,8.465,1.433,9.422
		c0.317,1.643,1.277,7.094,2.648,8.389c1.814,1.602,6.571,2.281,9.06,2.67c-0.268,4.617,11.345,8.313,15.413,8.092
		c0.27-2.221,1.91-3.475,4.318-3.018c1.146,0.193,1.418,1.248,2.394,1.525c6.429,1.982,11.551,0.299,18.296,0.299
		c3.246,0,7.975-0.492,9.705,0.764c2.74,2.064,1.793,9.609,2.603,12.625c2.267,8.658,4.832,18.602,5.057,27.529
		c0.13,5.264-1.812,10.639,0.047,15.832c2.523,7.119-1.922,4.873-2.712,12.193c-0.471,4.584-0.521,9.229-1.258,13.736
		c-0.58,3.842-1.906,5.104-6.221,4.408c-2.624-0.441-10.389-2.045-12.03-3.578h-0.928c0.345,3.248,0.646,6.457,0.928,9.73v4.887
		c-0.2,1.104-0.994-0.318-0.928,0.793c0.646,0.262,1.262,0.566,1.906,0.809v2.428h0.991v0.807c0-2.943,17.687,3.582,18.852,4.004
		c1.511,0.535,3.703,1.172,5.041,1.943c0.38,0.117,18.799,5.15,18.799,3.313v-0.797h0.948c0.03-9.119-0.755-18.256-0.111-27.379
		c0.632-8.729-1.812-7.504-0.726-16.16c2.67-22.506,0.362-45.84,0-68.352c0.999,1.262,13.457,0.014,15.114,0.014
		c7.182,0.027,14.419,0.07,21.586-0.014c0.178,0,0.364-0.027,0.525-0.027C338.274,402.109,356.475,401.431,361.44,402.22"/>
	<path fill="#FFFFFF" d="M221.679,412.294h-1.055c-0.691,3.01-2.286,4.154-3.057,6.824c0.438-1.492-3.442,2.529-3.216,2.293
		c-1.644,1.607-2.855,3.621-4.521,5.254c-2.021,2.074-3.39,4.313-5.568,6.992c-2.943,3.609-7.042,6.467-9.928,10.1
		c-1.238,1.568-1.759,4.043-3.07,5.484c-1.037,0.998-2.754,1.422-4.27,2.412v0.873c0,0.652-12.999,5.416-14.478,6.096
		c-7.549,3.66-15.316,6.496-23.292,9.313c0.361,0.873,0.649,1.67,1.04,2.586c4.13,0.957,11.992,7.025,14.862,9.424
		c1.794,1.482,5.041,0.844,6.849,2.285c2.116,1.609,1.815,4.051,5.422,3.621c1.136-4.043,4.709-2.482,7.754-4.381
		c4.761-3.002,8.254-7.398,12.416-11.012c4.701-3.979,9.878-7.48,14.437-11.594c2.458-2.176,4.208-4.09,7.327-6.113
		c1.988-1.281,9.407-8.424,11.439-8.424c1.519,0,4.319-1.139,4.917-2.594c0.852-1.906-2.095-9.307-2.912-11.066
		C230.672,426.218,221.867,418.439,221.679,412.294"/>
	<path fill="#FFFFFF" d="M403.573,461.646c-3.434-1.604-9.086-0.193-12.461-1.604c-6.474-2.75-21.466-8.234-21.466-8.234
		s-11.787-17.209-16.265-22.043c-4.862-5.379-5.244-16.479-12.667-18.379c-0.408,4.943-5.213,12.797-5.529,17.693
		c-0.049,0.756,3.858,5.338,4.552,6.773c1.72,3.1,2.146,6.678,3.719,9.764c1.938,4.006,4.413,17.057,6.29,21.055
		c2.853,6.176,3.027,4.533,8.648,8.205c2.307,1.482,5.47,1.371,7.959,2.855c3.03,1.795,6.32,3.508,9.317,5.348
		c3.874,2.396,8.366-0.012,12.543,2.438c2.486,1.443,4.378,3.188,6.677,4.652c0.709,0.381,1.294,0.721,1.909,0.977
		c10.287,3.967,15.616-16.492,24.647-18.107c-0.398-2.705,1.649-3.627,2.469-5.494C419.3,469.986,408.177,463.816,403.573,461.646"
		/>
	<path fill="#FFFFFF" d="M300.11,405.083c-0.872,0.43-0.24,3.092-0.24,3.813c0,1.227-0.139,9.957,2.286,5.271
		c0.535-1.068,0.709-2.254,0.709-3.439c0.034-1.299-0.124-2.73-0.659-3.926C301.952,406.228,301.007,404.792,300.11,405.083"/>
	<path fill="#FFFFFF" d="M583.403,334.621c-1.924,0.271-3.892-4.492-5.922-3.434c-3.042,1.645-4.806,1.408-5.483-1.643
		c-0.015-0.109-0.381,0.035-0.549-0.041c-2.923-0.791-5.752-1.635-9.036-2.551c0.21,0.604,0.271,1.559,0.744,1.828
		c5.859,3.434,11.648,6.873,17.682,9.807c1.505,0.77,3.652,1.441,5.948-0.875C585.549,334.994,584.383,336.839,583.403,334.621"/>
	<path fill="#FFFFFF" d="M547.903,324.316l-26.584-13.305l-49.37-43.664c-0.706-0.932-67.662-75.205-76.488-87.173
		c-8.716-11.854-70.373-80.069-72.525-82.815l-15.357-24.737l-28.151,51.768l-10.428,15.718l-9.39,21.31l-4.301,7.463l-1.651,7.438
		l-25.809-26.421l-8.676-11.859l-17.711,12.667l-20.091,26.694l-29.168,31.178l-53.326,67.587l-44.503,54.408l-39.018,2.184
		l14.28,15.939l36.068,7.934l27.029-16.891l63.059-98.507l11.142-25.395l29.736-31.474l13.125-9.228l-0.155,0.616
		c0.047,0.084,0.106,0.174,0.17,0.267c2.807,4.107,5.705,7.544,8.181,10.481c1.421,1.705,2.708,3.229,3.732,4.66
		c0.331,1.492-0.189,7.547,1.858,10.516c2.535,3.706,3.77,7.294,4.807,9.076c1.422,2.392,2.164,2.278,4.269,4.795l2.052,5.021
		c0.363,0.443,0.755,0.9,1.166,1.396l5.135,11.337l16.486-22.267l26.063-45.95l0.769-2.073c0.066-0.176-0.632-4.035,3.305-7.239
		c7.005-5.682,3.507-11.316,5.983-16.261c1.389-2.784,4.052-6.619,5.578-8.748l5.953-3.282l5.468-8.154l-0.003-0.032l16.868,22.773
		l29.846,34.074l1.482,1.588c0.03,0.028,3.369,2.522,6.943,7.483c4.293,5.968,4.293,5.968,11.558,16.568
		c7.421,10.771,20.973,29.63,21,29.63c0.632,1.123,13.571,23.819,20.189,32.55c0.612,0.804,1.055,1.427,1.401,1.895
		c0.276,0.456,0.646,0.992,1.07,1.577l-0.014,0.024l0.134,0.16c0.965,1.3,2.289,2.967,4.058,5.168
		c3.529,4.371,6.35,7.27,8.946,9.933c4.764,4.863,8.2,8.356,14.073,19.638c2.473,4.733,4.068,7.902,5.234,10.218
		c3.31,6.52,3.482,6.787,8.825,14.566l1.61,2.33c6.739,9.813,9.736,12.287,12.62,14.688c0.642,0.525,1.295,1.059,1.979,1.682
		c0.31,2.199,2.465,3.967,7.919,8.494c13.136,10.906,32.85,15.254,33.689,15.439l1.49,0.307l31.084-11.17l28.86-15.475
		L547.903,324.316z"/>
	<path fill="#FFFFFF" d="M209.747,179.698c-2.74-2.186-1.479,1.832-0.618,2.993c1.502,2.021,3.206,3.889,4.859,5.779
		c0.537,0.596,1.154,1.699,1.879,2.021c0.653,0.285,1.458,0.287,2.063-0.066c-1.103-2.402-3.405-4.524-5.125-6.545
		C211.717,182.615,211.038,180.75,209.747,179.698"/>
	<path fill="#FFFFFF" d="M309.863,123.415c-1.118,1.581-2.269,3.145-3.783,5.395c2.334-0.018,5.737,0.686,6.271-0.076
		c0.692-1.142-0.553-3.22-0.929-4.937C310.887,123.671,310.351,123.533,309.863,123.415"/>
	<path fill="#FFFFFF" d="M52.33,327.291c1.855-0.873,4.615-4.457,5.815-6.086c0.596-0.805,2.27-2.295,3.243-3.635
		c0.396-0.561-1.274-2.176-1.831-1.65c-1.779,1.576-3.952,5.016-4.629,6.145C54.314,323.111,50.386,328.179,52.33,327.291"/>
</g>
</svg>
